<svg width="56" height="64" viewBox="0 0 56 64" fill="none" xmlns="http://www.w3.org/2000/svg">
<path d="M55.2831 18.4989V28.386C54.7508 28.386 54.1131 28.4941 53.4754 28.4941C48.8391 28.4704 44.3595 26.8133 40.824 23.814V44.8636C40.8435 49.0078 39.499 53.0433 36.9978 56.3477C35.2349 58.7191 32.9424 60.646 30.3031 61.9746C27.6637 63.3032 24.7505 63.9968 21.7956 64.0001C18.581 63.9999 15.4197 63.1797 12.6106 61.6169C9.80148 60.0542 7.43748 57.8007 5.74219 55.0696C9.14417 58.2581 13.7135 60.2793 18.7124 60.2793C21.6541 60.2859 24.5556 59.5957 27.1792 58.2651C29.8027 56.9345 32.0739 55.0014 33.8065 52.6241C36.1466 49.4356 37.6355 45.5013 37.6355 41.1428V19.9851C41.0374 22.9628 45.396 24.6652 50.2868 24.6652C50.9245 24.6652 51.4569 24.6652 52.0946 24.5571V18.1801C53.0511 18.3935 53.9023 18.4989 54.8588 18.4989H55.2831V18.4989Z" fill="#FF004F"/>
<path d="M24.4559 25.8326V36.7843C23.6936 36.574 22.9066 36.4668 22.1158 36.4655C17.4357 36.4655 13.6095 40.3998 13.6095 45.1825C13.6095 46.2472 13.823 47.2037 14.1418 48.1603C12.0152 46.566 10.5264 44.0125 10.5264 41.1429C10.5264 36.3601 14.3526 32.4258 19.0327 32.4258C19.8811 32.4258 20.6269 32.5339 21.37 32.7446V25.7272H22.0077C22.8589 25.7272 23.7101 25.7272 24.4532 25.8353L24.4559 25.8326ZM42.4196 10.6304C40.5065 8.92804 39.123 6.59069 38.3799 4.14526H40.9335V5.63414C41.167 7.36735 41.6684 9.05377 42.4196 10.6331V10.6304Z" fill="#FF004F"/>
<path d="M52.2015 18.2855V24.6626C51.6692 24.7706 51.0315 24.7706 50.3938 24.7706C45.7582 24.7485 41.2787 23.0933 37.7424 20.0959V41.1456C37.7608 45.2879 36.4163 49.3214 33.9162 52.6242C30.4061 57.3043 24.9857 60.2794 18.8194 60.2794C13.8204 60.2794 9.25114 58.2609 5.84916 55.0696C3.97713 52.0339 2.98376 48.5384 2.97949 44.9718C2.97949 34.6577 11.167 26.2595 21.3702 25.9407V32.9581C20.6088 32.748 19.8227 32.6408 19.0329 32.6392C14.3528 32.6392 10.5265 36.5709 10.5265 41.3563C10.5265 44.226 11.91 46.8849 14.142 48.3738C15.312 51.6704 18.5005 54.1131 22.1133 54.1131C26.7934 54.1131 30.6196 50.1788 30.6196 45.396V4.14526H38.3801C39.1259 6.69878 40.5067 8.92804 42.4198 10.6304C43.3862 12.5478 44.764 14.2281 46.4549 15.5514C48.1458 16.8747 50.1081 17.8083 52.2015 18.2855V18.2855Z" fill="black"/>
<path d="M21.3688 22.1142V25.7243C11.1628 26.0431 2.97805 34.4414 2.97805 44.7554C2.97805 48.4762 4.03999 51.8782 5.84772 54.856C3.98451 53.0493 2.50599 50.8844 1.5011 48.4915C0.496211 46.0986 -0.014291 43.5272 0.000304347 40.9319C0.000304347 30.4044 8.50662 21.9008 18.9233 21.9008C19.7745 21.9008 20.6257 22.0088 21.3688 22.1142V22.1142Z" fill="#00F7EF"/>
<path d="M38.3797 4.14507H30.6192V45.1824C30.6192 49.9651 26.793 53.9021 22.1156 53.9021C18.3948 53.9021 15.3116 51.5621 14.1416 48.1601C15.5224 49.1167 17.222 49.7544 19.0325 49.7544C23.7072 49.7544 27.5361 45.9281 27.5361 41.1427V0H37.8501V0.213468C37.8501 0.637703 37.8501 1.06194 37.9555 1.48887C37.9555 2.34005 38.169 3.2966 38.3797 4.14507V4.14507ZM52.2011 14.351V18.1799C47.948 17.3288 44.3352 14.4591 42.314 10.6302C44.9862 13.132 48.5425 14.4703 52.2011 14.351V14.351Z" fill="#00F7EF"/>
</svg>
