<?xml version="1.0" encoding="UTF-8"?>
<svg id="uuid-6e1d7915-4110-4189-a86a-4f04bc0aaf75" data-name="uuid-7d0d41b4-4a08-4b38-b26a-c551a26574de" xmlns="http://www.w3.org/2000/svg" width="1064.47" height="268.93" xmlns:xlink="http://www.w3.org/1999/xlink" viewBox="0 0 1064.47 268.93">
  <defs>
    <style>
      .uuid-c9a91212-9315-4af3-a01c-4b0acc9bbe2a {
        fill: #08104d;
      }

      .uuid-7df75ea3-b55e-4f0a-ae36-9935ade9fc06 {
        fill: url(#uuid-247b0fd4-7976-43d8-8d71-328c63a14ce3);
      }

      .uuid-8cfe4749-b7fe-4d98-9895-c228e0151a34 {
        fill: url(#uuid-520c30e5-0d30-4fa1-9d67-8c3768f8dcef);
      }
    </style>
    <linearGradient id="uuid-520c30e5-0d30-4fa1-9d67-8c3768f8dcef" x1="60.87" y1="1.06" x2="60.87" y2="189.03" gradientTransform="translate(0 270) scale(1 -1)" gradientUnits="userSpaceOnUse">
      <stop offset="0" stop-color="#641dcb"/>
      <stop offset="1" stop-color="#06f3fc"/>
    </linearGradient>
    <linearGradient id="uuid-247b0fd4-7976-43d8-8d71-328c63a14ce3" x1="187" y1="1.24" x2="187" y2="270" gradientTransform="translate(0 270) scale(1 -1)" gradientUnits="userSpaceOnUse">
      <stop offset="0" stop-color="#641dcb"/>
      <stop offset="1" stop-color="#06f3fc"/>
    </linearGradient>
  </defs>
  <g id="uuid-b5049657-f2fa-4a9e-8145-4b884a627cf7" data-name="uuid-aa165be1-a697-47fc-80e4-f2e0046859f2">
    <g>
      <path class="uuid-c9a91212-9315-4af3-a01c-4b0acc9bbe2a" d="M399.72,64.75h30.57l53.4,142.12h-29.58l-11.71-33.94h-54.78l-11.71,33.94h-29.58l53.4-142.12h-.01Zm33.94,83.57l-12.7-35.53-5.16-17.27h-1.59l-5.16,17.27-12.7,35.53h37.31Z"/>
      <path class="uuid-c9a91212-9315-4af3-a01c-4b0acc9bbe2a" d="M497.18,109.61h24.42v12.7h1.59c3.04-4.76,7.18-8.6,12.41-11.51s11.02-4.37,17.37-4.37c7.41,0,13.63,1.72,18.66,5.16,5.03,3.44,8.6,7.68,10.72,12.7,3.04-4.89,7.34-9.1,12.9-12.6s12.31-5.26,20.25-5.26c5.96,0,11.12,.96,15.48,2.88,4.37,1.92,7.97,4.6,10.82,8.04,2.84,3.44,4.99,7.58,6.45,12.41,1.45,4.83,2.18,10.09,2.18,15.78v61.33h-26v-56.57c0-13.23-5.43-19.85-16.28-19.85-3.44,0-6.49,.76-9.13,2.28-2.65,1.52-4.86,3.57-6.65,6.15-1.79,2.58-3.18,5.66-4.17,9.23-.99,3.57-1.49,7.41-1.49,11.51v47.24h-26v-56.57c0-13.23-5.69-19.85-17.07-19.85-3.31,0-6.22,.76-8.73,2.28-2.52,1.52-4.63,3.57-6.35,6.15-1.72,2.58-3.05,5.66-3.97,9.23-.93,3.57-1.39,7.41-1.39,11.51v47.24h-26V109.61h-.02Z"/>
      <path class="uuid-c9a91212-9315-4af3-a01c-4b0acc9bbe2a" d="M671.06,109.61h24.42v11.71h1.59c2.38-4.1,6.09-7.61,11.12-10.52,5.03-2.91,11.25-4.37,18.66-4.37,6.22,0,12.14,1.29,17.77,3.87,5.62,2.58,10.59,6.15,14.89,10.72s7.71,10.02,10.22,16.38c2.51,6.35,3.77,13.3,3.77,20.84s-1.26,14.49-3.77,20.84c-2.51,6.35-5.92,11.81-10.22,16.38s-9.26,8.14-14.89,10.72-11.55,3.87-17.77,3.87c-7.41,0-13.63-1.46-18.66-4.37-5.03-2.91-8.73-6.42-11.12-10.52h-1.59l1.59,13.89v40.69h-26V109.61h-.01Zm50.42,76.42c3.44,0,6.71-.66,9.83-1.99,3.11-1.32,5.86-3.18,8.24-5.56s4.3-5.29,5.76-8.73c1.45-3.44,2.18-7.28,2.18-11.51s-.73-8.07-2.18-11.51c-1.46-3.44-3.38-6.35-5.76-8.73s-5.13-4.23-8.24-5.56c-3.11-1.32-6.39-1.99-9.83-1.99s-6.72,.63-9.83,1.89c-3.11,1.26-5.86,3.08-8.24,5.46s-4.3,5.29-5.76,8.73-2.18,7.34-2.18,11.71,.73,8.27,2.18,11.71c1.46,3.44,3.38,6.35,5.76,8.73s5.13,4.2,8.24,5.46c3.11,1.26,6.38,1.89,9.83,1.89h0Z"/>
      <path class="uuid-c9a91212-9315-4af3-a01c-4b0acc9bbe2a" d="M788.17,206.88V64.75h26V206.88h-26Z"/>
      <path class="uuid-c9a91212-9315-4af3-a01c-4b0acc9bbe2a" d="M850.89,96.51c-2.25,0-4.4-.43-6.45-1.29s-3.84-2.05-5.36-3.57c-1.52-1.52-2.71-3.28-3.57-5.26-.86-1.99-1.29-4.17-1.29-6.55s.43-4.57,1.29-6.55,2.05-3.74,3.57-5.26c1.52-1.52,3.31-2.71,5.36-3.57s4.2-1.29,6.45-1.29c4.63,0,8.6,1.62,11.91,4.86s4.96,7.18,4.96,11.81-1.66,8.57-4.96,11.81c-3.31,3.24-7.28,4.86-11.91,4.86h0Zm-12.9,110.36V109.61h26v97.26h-26Z"/>
      <path class="uuid-c9a91212-9315-4af3-a01c-4b0acc9bbe2a" d="M935.85,63.17c3.7,0,7.15,.33,10.32,.99,3.18,.66,6.02,1.52,8.54,2.58l-7.34,23.22c-1.32-.66-2.75-1.19-4.27-1.59-1.52-.4-3.41-.6-5.66-.6-3.84,0-6.88,1.23-9.13,3.67-2.25,2.45-3.37,5.86-3.37,10.22v7.94h24.22v22.23h-24.22v75.03h-26v-75.03h-17.47v-22.23h17.47v-9.53c0-5.95,.89-11.21,2.68-15.78s4.33-8.4,7.64-11.51,7.21-5.49,11.71-7.15c4.5-1.65,9.46-2.48,14.89-2.48v.02Z"/>
      <path class="uuid-c9a91212-9315-4af3-a01c-4b0acc9bbe2a" d="M997.18,202.11l-40.89-92.5h29.58l24.61,58.95h1.39l23.62-58.95h28.98l-60.94,140.14h-27.99l21.64-47.64Z"/>
    </g>
    <g>
      <path class="uuid-8cfe4749-b7fe-4d98-9895-c228e0151a34" d="M51.83,268.86c-.85-.03-1.41-.07-1.6-.11-7.51-1.61-17.55-3.58-24.01-8.27-12.41-9.02-21.15-22.67-24.63-38.44-3.46-15.77-1.26-31.83,6.21-45.23L61.26,80.97l51.16,93.98c26.18,48.48-5.53,96.09-60.59,93.92h0Z"/>
      <path class="uuid-7df75ea3-b55e-4f0a-ae36-9935ade9fc06" d="M288.13,226.27c-4.26,15.01-14.12,27.46-27.74,35.06-13.63,7.61-29.39,9.44-44.41,5.18-15.01-4.26-27.46-14.12-35.06-27.74l-30.53-54.74-62.58-117.16c-5.7-10.67-5.58-23.5,.31-34.06h0s4.9-7.33,4.9-7.33c.77-1.16,1.61-2.27,2.52-3.33,4.81-5.61,10.52-10.33,16.92-13.93C122,2.84,132.9,0,143.97,0s21.97,2.84,31.5,8.21c10.14,5.71,18.56,14.21,24.35,24.59l83.13,149.06c7.6,13.63,9.44,29.4,5.18,44.41Z"/>
    </g>
  </g>
</svg>