<?xml version="1.0" encoding="UTF-8"?><svg id="Layer_2" xmlns="http://www.w3.org/2000/svg" viewBox="0 0 671.87 118.2"><defs><style>.cls-1{fill:#fff;}</style></defs><g id="Layer_1-2"><path class="cls-1" d="M159.29,19.83c28.21,0,43.53,15.75,43.53,48.39s-15.18,48.25-43.53,48.25h-34.08c-5.44,0-8.02-2.58-8.02-7.87V27.71c0-5.3,2.58-7.87,8.02-7.87h34.08ZM134.09,97.87c0,1.29.57,1.72,1.86,1.72h23.34c18.76,0,26.63-9.31,26.63-31.5s-7.87-31.36-26.63-31.36h-23.34c-1.29,0-1.86.43-1.86,1.72v59.42Z"/><path class="cls-1" d="M231.03,19.83v96.64h-16.89V19.83h16.89Z"/><path class="cls-1" d="M311.63,19.83v16.89h-28.21v79.75h-17.04V36.73h-28.21v-16.89h73.45Z"/><path class="cls-1" d="M334.26,116.48h-16.89V39.16c0-12.6,7.16-21.05,22.19-21.05,13.46,0,19.47,6.87,23.48,17.9l28.21,61.71c1.15,2.29,3.01,4.01,6.16,4.01,3.58,0,5.73-2.15,5.73-5.44V19.83h17.04v77.17c0,12.74-7.3,21.19-22.19,21.19-13.46,0-19.62-6.87-23.62-17.9l-28.21-61.71c-1.29-2.86-3.01-4.15-6.01-4.15-3.87,0-5.87,2.15-5.87,5.58v76.46Z"/><path class="cls-1" d="M482.3,19.83c28.06,0,43.67,16.04,43.67,48.54s-15.46,48.11-43.67,48.11h-13.17c-28.21,0-43.67-15.75-43.67-48.11s15.61-48.54,43.67-48.54h13.17ZM469.13,36.73c-18.61,0-26.77,9.45-26.77,31.64s8.02,31.21,26.77,31.21h13.17c18.61,0,26.63-9.16,26.63-31.36s-8.02-31.5-26.63-31.5h-13.17Z"/><path class="cls-1" d="M537.71,19.83l28.92,77.89c1,2.43,2.72,4.01,5.3,4.01,2.86,0,5.01-2.15,5.01-5.44v-57.13c0-12.6,7.16-21.05,21.33-21.05,12.89,0,19.19,6.87,22.91,17.9l23.48,61.71c.86,2.43,2.86,4.01,5.3,4.01,2.86,0,4.87-2.15,4.87-5.44V19.83h17.04v77.17c0,12.74-7.16,21.19-21.48,21.19-12.89,0-19.04-6.87-22.77-17.9l-23.48-61.71c-.86-2.43-2.86-4.15-5.44-4.15-2.86,0-4.87,2.15-4.87,5.58v56.98c0,12.74-7.16,21.19-21.48,21.19-12.89,0-19.04-6.87-22.77-17.9l-29.92-80.46h18.04Z"/><polygon class="cls-1" points="59.39 33.9 40.44 39.55 20.72 23.66 39.67 18.01 59.39 33.9"/><path class="cls-1" d="M48.7,15.47c-.35-.4.07-.38.33-.46,6.19-1.85,12.37-3.76,18.57-5.57l19.76,15.7-18.94,5.77c-6.13-4.79-12.21-9.64-18.26-14.51-.31-.25-1.41-.86-1.47-.92Z"/><polygon class="cls-1" points="98.29 0 104.34 20.03 96.47 22.4 76.68 6.71 98.29 0"/><path class="cls-1" d="M28.1,72.19v22.14h76.24v14.52c0,3.43-3.16,7.18-6.6,7.62H12.53c-3.74-.81-6.21-3.62-6.57-7.42v-14.72s0-22.14,0-22.14h-.02v-22.14s98.4,0,98.4,0v22.14H28.1Z"/><polygon class="cls-1" points="31.41 42.2 6.62 50.05 5.94 50.05 0 30.17 11.86 26.71 31.41 42.2"/></g></svg>