<?xml version="1.0" encoding="UTF-8"?><svg id="Layer_2" xmlns="http://www.w3.org/2000/svg" viewBox="0 0 673.87 120.2"><defs><style>.cls-1{fill:#fff;}</style></defs><g id="Layer_1-2"><path class="cls-1" d="M159.29,19.83c28.21,0,43.53,15.75,43.53,48.39s-15.18,48.25-43.53,48.25h-34.08c-5.44,0-8.02-2.58-8.02-7.87V27.71c0-5.3,2.58-7.87,8.02-7.87h34.08ZM134.09,97.87c0,1.29.57,1.72,1.86,1.72h23.34c18.76,0,26.63-9.31,26.63-31.5s-7.87-31.36-26.63-31.36h-23.34c-1.29,0-1.86.43-1.86,1.72v59.42Z"/><path class="cls-1" d="M231.03,19.83v96.64h-16.89V19.83h16.89Z"/><path class="cls-1" d="M311.63,19.83v16.89h-28.21v79.75h-17.04V36.73h-28.21v-16.89h73.45Z"/><path class="cls-1" d="M339.55,22.12c10.33,0,15.68,4.14,19.72,15.26l.05.15.07.15,28.21,61.71.03.06.03.06c2.01,4.01,5.46,6.22,9.73,6.22,5.73,0,9.73-3.88,9.73-9.44V23.83h9.04v73.17c0,11.25-6.29,17.19-18.19,17.19-10.3,0-15.87-4.28-19.86-15.26l-.05-.15-.07-.15-28.2-61.69c-1.97-4.38-5.13-6.51-9.66-6.51-5.9,0-9.87,3.85-9.87,9.58v72.46h-8.89V39.16c0-11.15,6.29-17.05,18.19-17.05M339.55,18.12c-15.03,0-22.19,8.45-22.19,21.05v77.32h16.89V40.02c0-3.44,2-5.58,5.87-5.58,3.01,0,4.72,1.29,6.01,4.15l28.21,61.71c4.01,11.02,10.17,17.9,23.62,17.9,14.89,0,22.19-8.45,22.19-21.19V19.83h-17.04v76.46c0,3.29-2.15,5.44-5.73,5.44-3.15,0-5.01-1.72-6.16-4.01l-28.21-61.71c-4.01-11.02-10.02-17.9-23.48-17.9h0Z"/><path class="cls-1" d="M482.3,23.83c12.95,0,22.84,3.63,29.41,10.79,6.81,7.41,10.26,18.77,10.26,33.75s-3.43,26.17-10.19,33.47c-6.54,7.06-16.45,10.64-29.48,10.64h-13.17c-13.02,0-22.94-3.58-29.48-10.64-6.76-7.3-10.19-18.56-10.19-33.47s3.45-26.34,10.26-33.75c6.57-7.16,16.46-10.79,29.41-10.79h13.17M469.13,103.58h13.17c10.66,0,18.3-2.86,23.34-8.76,4.91-5.74,7.3-14.44,7.3-26.6,0-24.22-9.73-35.5-30.63-35.5h-13.17c-21,0-30.77,11.33-30.77,35.64,0,12.1,2.4,20.77,7.32,26.49,5.06,5.87,12.73,8.73,23.45,8.73M482.3,19.83h-13.17c-28.06,0-43.67,16.04-43.67,48.54s15.46,48.11,43.67,48.11h13.17c28.21,0,43.67-15.75,43.67-48.11s-15.61-48.54-43.67-48.54h0ZM469.13,99.58c-18.76,0-26.77-9.16-26.77-31.21s8.16-31.64,26.77-31.64h13.17c18.61,0,26.63,9.45,26.63,31.5s-8.02,31.36-26.63,31.36h-13.17Z"/><path class="cls-1" d="M598.28,22.12c9.94,0,15.48,4.4,19.12,15.18l.02.07.03.07,23.47,61.67c1.44,4.03,4.99,6.63,9.05,6.63,5.14,0,8.87-3.97,8.87-9.44V23.83h9.04v73.17c0,7.84-3.03,17.19-17.48,17.19-9.84,0-15.34-4.4-18.98-15.18l-.02-.07-.03-.07-23.47-61.67c-1.47-4.11-5.08-6.77-9.19-6.77-5.14,0-8.87,4.03-8.87,9.58v56.98c0,7.84-3.03,17.19-17.48,17.19-9.84,0-15.34-4.4-18.98-15.18l-.02-.06-.02-.06-27.92-75.07h9.5l27.95,75.28.02.07.03.06c1.7,4.12,4.98,6.49,9,6.49,5.14,0,9.01-4.06,9.01-9.44v-57.13c0-7.78,3.01-17.05,17.33-17.05M598.28,18.12c-14.17,0-21.33,8.45-21.33,21.05v57.13c0,3.29-2.15,5.44-5.01,5.44-2.58,0-4.3-1.57-5.3-4.01l-28.92-77.89h-18.04l29.92,80.47c3.72,11.02,9.88,17.9,22.77,17.9,14.32,0,21.48-8.45,21.48-21.19v-56.98c0-3.44,2-5.58,4.87-5.58,2.58,0,4.58,1.72,5.44,4.15l23.48,61.71c3.72,11.02,9.88,17.9,22.77,17.9,14.32,0,21.48-8.45,21.48-21.19V19.83h-17.04v76.46c0,3.29-2,5.44-4.87,5.44-2.43,0-4.44-1.57-5.3-4.01l-23.48-61.71c-3.72-11.02-10.02-17.9-22.91-17.9h0Z"/><polygon class="cls-1" points="59.39 33.9 40.44 39.55 20.72 23.66 39.67 18.01 59.39 33.9"/><path class="cls-1" d="M48.7,15.47c-.35-.4.07-.38.33-.46,6.19-1.85,12.37-3.76,18.57-5.57l19.76,15.7-18.94,5.77c-6.13-4.79-12.21-9.64-18.26-14.51-.31-.25-1.41-.86-1.47-.92Z"/><polygon class="cls-1" points="98.29 0 104.34 20.03 96.47 22.4 76.68 6.71 98.29 0"/><path class="cls-1" d="M28.1,72.19v22.14h76.24v14.52c0,3.43-3.16,7.18-6.6,7.62H12.53c-3.74-.81-6.21-3.62-6.57-7.42v-14.72s0-22.14,0-22.14h-.02v-22.14s98.4,0,98.4,0v22.14H28.1Z"/><polygon class="cls-1" points="31.41 42.2 6.62 50.05 5.94 50.05 0 30.17 11.86 26.71 31.41 42.2"/></g></svg>